<svg width="58" height="54" viewBox="0 0 58 54" fill="none" xmlns="http://www.w3.org/2000/svg">
<path d="M14.3629 7.18231H3.59031C1.60579 7.18231 0 8.79147 0 10.7726V50.2728C0 52.2573 1.60579 53.8631 3.59031 53.8631H14.3629C16.3474 53.8631 17.9532 52.2573 17.9532 50.2728V10.7726C17.9532 8.79147 16.3474 7.18231 14.3629 7.18231ZM5.38631 43.0905C4.39321 43.0905 3.59031 42.2876 3.59031 41.2945C3.59031 40.3014 4.39321 39.4985 5.38631 39.4985C6.37941 39.4985 7.18231 40.3014 7.18231 41.2945C7.18231 42.2876 6.37941 43.0905 5.38631 43.0905ZM14.3629 21.5452H3.59031V17.9549H14.3629V21.5452ZM14.3629 14.3629H3.59031V10.7726H14.3629V14.3629ZM37.7042 46.6808V43.0905H26.9315V46.6808C24.947 46.6808 23.3412 48.2866 23.3412 50.2711H41.2962C41.2962 48.2866 39.6887 46.6808 37.7042 46.6808ZM53.8631 0H10.7726C8.7881 0 7.18231 1.60916 7.18231 3.59031H53.8631V32.3179H21.5452V39.5002H53.8631C55.8476 39.5002 57.4534 37.8944 57.4534 35.9098V3.59199C57.4534 1.61084 55.8476 0.00168322 53.8631 0.00168322V0ZM32.3179 37.7042C31.3248 37.7042 30.5219 36.9013 30.5219 35.9082C30.5219 34.9151 31.3248 34.1122 32.3179 34.1122C33.311 34.1122 34.1139 34.9151 34.1139 35.9082C34.1139 36.9013 33.311 37.7042 32.3179 37.7042Z" fill="white"/>
</svg>
